<?xml version="1.0" encoding="windows-1252"?>
<svg xmlns="http://www.w3.org/2000/svg" width="1080" height="1920" viewBox="0 0 1080 1920" role="img" aria-label="Story  Agenda aberta para manutenção de unhas">
  <defs>
    <linearGradient id="bg" x1="0" y1="0" x2="0" y2="1">
      <stop offset="0%" stop-color="#fff8f3"/>
      <stop offset="55%" stop-color="#fde8d8"/>
      <stop offset="100%" stop-color="#f7d4bf"/>
    </linearGradient>
    <linearGradient id="nail" x1="0" y1="0" x2="1" y2="1">
      <stop offset="0%" stop-color="#ff8a2a"/>
      <stop offset="100%" stop-color="#f05a12"/>
    </linearGradient>
    <filter id="soft" x="-20%" y="-20%" width="140%" height="140%">
      <feGaussianBlur stdDeviation="18"/>
    </filter>
  </defs>

  <rect width="1080" height="1920" fill="url(#bg)"/>

  <line x1="88" y1="0" x2="88" y2="220" stroke="#f05a12" stroke-width="3"/>
  <circle cx="88" cy="232" r="8" fill="#f05a12"/>

  <g fill="#f05a12" opacity="0.9">
    <path d="M180 120l10 20 22 3-16 15 4 22-20-10-20 10 4-22-16-15 22-3z"/>
    <path d="M920 180l8 16 18 2-13 12 3 18-16-8-16 8 3-18-13-12 18-2z"/>
    <path d="M860 420l6 12 14 2-10 9 2 14-12-6-12 6 2-14-10-9 14-2z"/>
    <path d="M210 520l6 12 14 2-10 9 2 14-12-6-12 6 2-14-10-9 14-2z"/>
  </g>

  <rect x="88" y="108" width="248" height="56" rx="28" fill="#f05a12"/>
  <text x="212" y="145" text-anchor="middle" font-family="ui-sans-serif, system-ui, sans-serif" font-size="24" font-weight="600" fill="#fff8f3">Agenda aberta</text>

  <text x="88" y="290" font-family="Georgia, 'Times New Roman', serif" font-size="112" font-weight="700" fill="#4a2f24">Bom</text>
  <text x="88" y="410" font-family="Georgia, 'Times New Roman', serif" font-size="112" font-style="italic" font-weight="700" fill="#4a2f24">dia!</text>

  <text x="88" y="500" font-family="ui-sans-serif, system-ui, sans-serif" font-size="34" fill="#4a2f24">
    <tspan>Já </tspan><tspan font-weight="700">reservou</tspan><tspan> um </tspan><tspan font-weight="700">horário</tspan>
  </text>
  <text x="88" y="548" font-family="ui-sans-serif, system-ui, sans-serif" font-size="34" fill="#4a2f24">
    <tspan>para sua </tspan><tspan font-weight="700">manutenção</tspan><tspan>?</tspan>
  </text>

  <ellipse cx="760" cy="980" rx="280" ry="320" fill="#ffd2ad" opacity="0.55" filter="url(#soft)"/>

  <g transform="translate(300 620)">
    <path d="M120 420c40-180 120-260 220-250 70 8 120 70 130 150 8 62-10 120-48 168-36 44-92 72-150 78-58 6-108-18-152-146z" fill="#f3c7a8"/>
    <path d="M360 420c-10-150 50-250 150-255 86-4 150 72 165 170 12 82-18 150-72 198-48 42-108 58-165 42-44-12-78-52-78-155z" fill="#efb995"/>

    <g transform="translate(170 95) rotate(-8)">
      <ellipse cx="0" cy="0" rx="34" ry="46" fill="url(#nail)"/>
      <ellipse cx="58" cy="-8" rx="30" ry="42" fill="url(#nail)"/>
      <ellipse cx="112" cy="2" rx="28" ry="40" fill="url(#nail)"/>
      <ellipse cx="164" cy="18" rx="26" ry="36" fill="url(#nail)"/>
      <ellipse cx="210" cy="42" rx="22" ry="30" fill="url(#nail)"/>
    </g>

    <g transform="translate(430 120) rotate(10)">
      <ellipse cx="0" cy="0" rx="32" ry="44" fill="url(#nail)"/>
      <ellipse cx="54" cy="6" rx="28" ry="40" fill="url(#nail)"/>
      <ellipse cx="104" cy="18" rx="26" ry="38" fill="url(#nail)"/>
      <ellipse cx="150" cy="36" rx="24" ry="34" fill="url(#nail)"/>
      <ellipse cx="190" cy="58" rx="20" ry="28" fill="url(#nail)"/>
    </g>
  </g>

  <rect x="88" y="1680" width="360" height="72" rx="36" fill="#f05a12"/>
  <circle cx="132" cy="1716" r="16" fill="none" stroke="#fff8f3" stroke-width="3"/>
  <path d="M126 1716h12M132 1710v12" stroke="#fff8f3" stroke-width="3" stroke-linecap="round"/>
  <text x="220" y="1726" font-family="ui-sans-serif, system-ui, sans-serif" font-size="28" font-weight="600" fill="#fff8f3">Agenda disponível</text>
</svg>
